<?xml version="1.0" encoding="UTF-8" standalone="no"?>
<!--
Attribution: 
Cute Animal Vectors - Regan Jiang - https://dribbble.com/reganjiang - https://www.svgrepo.com/svg/530198/fox
Solar Bold Duotone Icons - Solar Icons - https://www.figma.com/community/file/1166831539721848736/solar-icons-set - https://www.svgrepo.com/svg/527682/database
Twemoji Emojis - Twitter - https://github.com/twitter/twemoji - https://www.svgrepo.com/svg/405703/fox

smashed together and edited by me (xwxfox) - https://github.com/xwxfox 
-->

<!DOCTYPE svg PUBLIC "-//W3C//DTD SVG 1.1//EN" "http://www.w3.org/Graphics/SVG/1.1/DTD/svg11.dtd">
<svg width="100%" height="100%" viewBox="0 0 2000 2000" version="1.1" xmlns="http://www.w3.org/2000/svg" xmlns:xlink="http://www.w3.org/1999/xlink" xml:space="preserve" xmlns:serif="http://www.serif.com/" style="fill-rule:evenodd;clip-rule:evenodd;stroke-linejoin:round;stroke-miterlimit:2;">
    <g id="foxdb-icon-:D" serif:id="foxdb icon :D" transform="matrix(1,0,0,1,-102.575502,86.990799)">
        <g id="tailjob" transform="matrix(2.467928,0,0,2.467928,-113.652895,-343.585582)">
            <g transform="matrix(1,0,0,1,-9.665102,0)">
                <path d="M541.971,633.791C581.367,622.874 628.561,602.614 683.205,599.584C737.849,596.555 789.859,633.789 791.634,690.084C791.902,698.595 791.657,707.124 789.859,715.456C784.494,740.337 745.762,815.419 602.142,805.876C633.376,781.924 641.264,731.628 652.42,709.505C637.937,703.311 601.123,690.621 541.971,671.439L541.971,633.791Z" style="fill:rgb(253,144,65);fill-rule:nonzero;"/>
            </g>
            <g transform="matrix(1,0,0,1,-9.665102,0)">
                <path d="M642.657,721.381C645.302,716.588 653.906,714.043 662.853,715.222C668.962,716.028 665.228,726.625 671.542,728.813C675.625,730.229 683.542,722.989 687.454,725.014C693.156,727.969 691.497,736.588 696.322,740.909C699.517,743.774 713.573,743.741 716.161,747.235C720.786,753.484 709.854,757.563 711.732,765.932C712.434,769.054 727.957,768.862 728.176,772.293C728.541,777.993 727.132,789.377 721.758,794.467C704.802,810.523 664.002,815.726 599.355,810.074C618.706,768.185 633.139,738.619 642.657,721.381Z" style="fill:rgb(255,243,189);fill-rule:nonzero;"/>
            </g>
            <g transform="matrix(1,0,0,1,-9.665102,0)">
                <path d="M647.98,718.93C650.36,711.64 656.219,705.039 661.811,697.841C662.878,696.511 663.46,694.857 663.46,693.152C663.46,689.042 660.077,685.659 655.967,685.659C653.613,685.659 651.392,686.769 649.978,688.65C643.362,697.162 638.566,705.923 635.627,714.924C635.382,715.675 635.257,716.46 635.257,717.25C635.257,720.484 637.35,723.369 640.425,724.373C644.356,725.654 646.696,722.864 647.98,718.93Z" style="fill:rgb(82,79,117);fill-rule:nonzero;"/>
            </g>
            <g transform="matrix(1,0,0,1,-9.665102,0)">
                <path d="M541.971,633.791L541.971,671.439C601.123,690.621 637.937,703.311 652.42,709.507C641.264,731.631 633.376,781.926 602.142,805.878C745.762,815.421 784.494,740.34 789.859,715.459C791.657,707.127 791.902,698.598 791.634,690.086C789.859,633.791 737.849,596.557 683.205,599.587C628.561,602.617 581.367,622.874 541.971,633.791ZM537.348,685.693C531.186,683.695 526.986,677.917 526.985,671.439L526.985,633.791C526.985,627.076 531.498,621.141 537.97,619.348C543.991,617.679 550.457,615.724 558.937,613.031C562.079,612.032 577.464,607.08 581.882,605.681C622.367,592.861 650.607,586.387 682.376,584.627C747.443,581.02 804.624,626.543 806.615,689.614C806.962,700.678 806.42,709.752 804.507,718.621C799.799,740.437 783.38,766.169 756.689,785.678C720.367,812.222 668.862,825.332 601.145,820.831C587.354,819.914 582.052,802.399 593.021,793.987C603.88,785.66 612.409,772.376 620.184,753.219C622.982,746.319 629.688,726.923 632.827,717.936C614.038,710.998 582.107,700.209 537.348,685.693Z" style="fill:rgb(82,79,117);fill-rule:nonzero;"/>
            </g>
        </g>
        <g id="db" transform="matrix(56.927694,0,0,56.927694,316.867668,316.867668)">
            <g id="stroke-me" serif:id="stroke me" transform="matrix(1.089359,0,0,1.076011,-1.488739,-0.876133)">
                <path d="M12,10C16.418,10 20,8.209 20,6C20,3.791 16.418,2 12,2C7.582,2 4,3.791 4,6C4,8.209 7.582,10 12,10Z" style="fill:rgb(82,79,117);fill-rule:nonzero;"/>
                <path d="M4,12L4,18C4,20.209 7.582,22 12,22C16.418,22 20,20.209 20,18L20,12C20,14.209 16.418,16 12,16C7.582,16 4,14.209 4,12Z" style="fill:rgb(82,79,117);fill-rule:nonzero;"/>
                <path d="M4,6L4,12C4,14.209 7.582,16 12,16C16.418,16 20,14.209 20,12L20,6C20,8.209 16.418,10 12,10C7.582,10 4,8.209 4,6Z" style="fill:rgb(82,79,117);fill-rule:nonzero;"/>
            </g>
            <g transform="matrix(1,0,0,1,-0.419001,0)">
                <path d="M12,10C16.418,10 20,8.209 20,6C20,3.791 16.418,2 12,2C7.582,2 4,3.791 4,6C4,8.209 7.582,10 12,10Z" style="fill:rgb(252,115,15);fill-rule:nonzero;"/>
            </g>
            <g transform="matrix(1,0,0,1,-0.419001,0)">
                <path d="M4,12L4,18C4,20.209 7.582,22 12,22C16.418,22 20,20.209 20,18L20,12C20,14.209 16.418,16 12,16C7.582,16 4,14.209 4,12Z" style="fill:rgb(255,243,189);fill-rule:nonzero;"/>
            </g>
            <g transform="matrix(1,0,0,1,-0.419001,0)">
                <path d="M4,6L4,12C4,14.209 7.582,16 12,16C16.418,16 20,14.209 20,12L20,6C20,8.209 16.418,10 12,10C7.582,10 4,8.209 4,6Z" style="fill:rgb(253,144,65);fill-rule:nonzero;"/>
            </g>
        </g>
        <g id="fops-ears" serif:id="fops ears" transform="matrix(31.796268,0,0,31.796268,427.857471,106.885079)">
            <g transform="matrix(1.146909,0,0,1.138216,-4.821163,-1.235298)">
                <path d="M22.557,9.802C21.9,12.441 31.23,20.291 33.802,13.9C35.292,10.197 36.594,2.434 35.114,2.065C33.634,1.697 23.215,7.163 22.557,9.802Z" style="fill:rgb(82,79,117);fill-rule:nonzero;"/>
            </g>
            <g transform="matrix(1.059479,0,0,1.045963,-3.040789,0.675439)">
                <path d="M22.557,9.802C21.9,12.441 31.23,20.291 33.802,13.9C35.292,10.197 36.594,2.434 35.114,2.065C33.634,1.697 23.215,7.163 22.557,9.802Z" style="fill:rgb(253,144,65);fill-rule:nonzero;"/>
            </g>
            <g transform="matrix(1.204019,-0.041498,0.038812,1.126085,-7.231496,-0.386059)">
                <path d="M24.552,10.355C23.592,11.893 26.383,14.916 27.92,15.877C29.457,16.838 30.818,15.325 32.333,11.463C32.995,9.775 33.999,5.194 33.437,4.842C32.874,4.49 25.513,8.817 24.552,10.355Z" style="fill:rgb(217,68,82);fill-rule:nonzero;"/>
            </g>
            <g transform="matrix(-1.146909,0,0,1.138216,38.626213,-1.235298)">
                <path d="M22.557,9.802C21.9,12.441 31.23,20.291 33.802,13.9C35.292,10.197 36.594,2.434 35.114,2.065C33.634,1.697 23.215,7.163 22.557,9.802Z" style="fill:rgb(82,79,117);fill-rule:nonzero;"/>
            </g>
            <g transform="matrix(-1.030949,0,0,1.045963,36.014333,0.675439)">
                <path d="M22.557,9.802C21.9,12.441 31.23,20.291 33.802,13.9C35.292,10.197 36.594,2.434 35.114,2.065C33.634,1.697 23.215,7.163 22.557,9.802Z" style="fill:rgb(253,144,65);fill-rule:nonzero;"/>
            </g>
            <g transform="matrix(-1.204019,-0.041498,-0.038812,1.126085,41.036546,-0.386059)">
                <path d="M24.552,10.355C23.592,11.893 26.383,14.916 27.92,15.877C29.457,16.838 30.818,15.325 32.333,11.463C32.995,9.775 33.999,5.194 33.437,4.842C32.874,4.49 25.513,8.817 24.552,10.355Z" style="fill:rgb(217,68,82);fill-rule:nonzero;"/>
            </g>
        </g>
    </g>
</svg>
